<svg xmlns="http://www.w3.org/2000/svg" viewBox="0 0 420 320" width="420" height="320"><defs><radialGradient id="body" cx="35%" cy="28%" r="85%"><stop offset="0" stop-color="#b7e5a9"/><stop offset=".5" stop-color="#7ccf62"/><stop offset="1" stop-color="#63a64e"/></radialGradient></defs><path d="M262 140 Q350 121 412 132.5 Q360 171 282 208 Z" fill="url(#body)" stroke="#25303b" stroke-width="5" stroke-linejoin="round" stroke-linecap="round"/><path d="M160.8 125.1 L170 100.6 L179.3 125.1 Z" fill="#4c9a43" stroke="#25303b" stroke-width="4" stroke-linejoin="round" stroke-linecap="round"/><path d="M196.8 115.1 L205 92.6 L213.2 115.1 Z" fill="#4c9a43" stroke="#25303b" stroke-width="4" stroke-linejoin="round" stroke-linecap="round"/><path d="M232.8 115.2 L240 94.8 L247.2 115.2 Z" fill="#4c9a43" stroke="#25303b" stroke-width="4" stroke-linejoin="round" stroke-linecap="round"/><path d="M306.3 140.3 L312.5 122 L318.7 140.3 Z" fill="#4c9a43" stroke="#25303b" stroke-width="4" stroke-linejoin="round" stroke-linecap="round"/><path d="M345.8 137.3 L350.9 121 L356.1 137.3 Z" fill="#4c9a43" stroke="#25303b" stroke-width="4" stroke-linejoin="round" stroke-linecap="round"/><path d="M382 138.1 L386.2 123.8 L390.3 138.1 Z" fill="#4c9a43" stroke="#25303b" stroke-width="4" stroke-linejoin="round" stroke-linecap="round"/><ellipse cx="266" cy="206" rx="30" ry="40" fill="#63a64e" stroke="#25303b" stroke-width="5" stroke-linejoin="round" stroke-linecap="round"/><rect x="254" y="222" width="26" height="74" rx="12" fill="#63a64e" stroke="#25303b" stroke-width="5" stroke-linejoin="round" stroke-linecap="round"/><ellipse cx="256" cy="298" rx="30" ry="12" fill="#63a64e" stroke="#25303b" stroke-width="5" stroke-linejoin="round" stroke-linecap="round"/><ellipse cx="222" cy="170" rx="93.5" ry="66" fill="url(#body)" stroke="#25303b" stroke-width="5" stroke-linejoin="round" stroke-linecap="round"/><clipPath id="bodyclip"><ellipse cx="222" cy="170" rx="93.5" ry="66"/></clipPath><g clip-path="url(#bodyclip)"><ellipse cx="196" cy="202" rx="70" ry="46" fill="#f3f0b8"/><path d="M210 108 q-6 22 4 40" fill="none" stroke="#4c9a43" stroke-width="9" stroke-linecap="round"/><path d="M234 108 q-6 22 4 40" fill="none" stroke="#4c9a43" stroke-width="9" stroke-linecap="round"/><path d="M258 108 q-6 22 4 40" fill="none" stroke="#4c9a43" stroke-width="9" stroke-linecap="round"/><path d="M282 108 q-6 22 4 40" fill="none" stroke="#4c9a43" stroke-width="9" stroke-linecap="round"/></g><ellipse cx="222" cy="170" rx="93.5" ry="66" fill="none" stroke="#25303b" stroke-width="5" stroke-linejoin="round" stroke-linecap="round"/><ellipse cx="214" cy="212" rx="36" ry="44" fill="url(#body)" stroke="#25303b" stroke-width="5" stroke-linejoin="round" stroke-linecap="round"/><rect x="198" y="230" width="30" height="66" rx="13" fill="url(#body)" stroke="#25303b" stroke-width="5" stroke-linejoin="round" stroke-linecap="round"/><ellipse cx="202" cy="298" rx="34" ry="12" fill="url(#body)" stroke="#25303b" stroke-width="5" stroke-linejoin="round" stroke-linecap="round"/><path d="M172 302 l-6 -6 M182 304 l-6 -6" stroke="#25303b" stroke-width="3" stroke-linejoin="round" stroke-linecap="round"/><ellipse cx="146" cy="196" rx="11" ry="24" transform="rotate(28 146 196)" fill="url(#body)" stroke="#25303b" stroke-width="4" stroke-linejoin="round" stroke-linecap="round"/><path d="M134 216 l-6 4 M140 220 l-4 6" stroke="#25303b" stroke-width="3" stroke-linejoin="round" stroke-linecap="round"/><ellipse cx="151.5" cy="144" rx="44" ry="52" fill="url(#body)" stroke="#25303b" stroke-width="5" stroke-linejoin="round" stroke-linecap="round"/><ellipse cx="135.5" cy="162" rx="26" ry="30" fill="#f3f0b8"/><g transform="translate(105.5 92) rotate(0) scale(1.1099999999999999)"><path d="M54 -20 Q32 -54 -16 -48 Q-56 -44 -68 -18 Q-76 2 -68 18 Q-56 32 -30 34 L28 38 Q58 34 62 6 Z" fill="url(#body)" stroke="#25303b" stroke-width="5" stroke-linejoin="round" stroke-linecap="round"/><path d="M-68 14 Q-56 32 -30 34 L28 38 Q50 36 58 22 Q10 24 -68 14 Z" fill="#f3f0b8"/><path d="M54 -20 Q32 -54 -16 -48 Q-56 -44 -68 -18 Q-76 2 -68 18 Q-56 32 -30 34 L28 38 Q58 34 62 6 Z" fill="none" stroke="#25303b" stroke-width="5" stroke-linejoin="round" stroke-linecap="round"/><path d="M-68 12 Q-20 22 40 18" fill="none" stroke="#25303b" stroke-width="4" stroke-linejoin="round" stroke-linecap="round"/><circle cx="-58" cy="-16" r="3.5" fill="#25303b"/><ellipse cx="26" cy="8" rx="12" ry="7" fill="#ff8fa3" opacity="0.25"/><ellipse cx="6" cy="-18" rx="12" ry="13.440000000000001" fill="#fff" stroke="#25303b" stroke-width="3.5" stroke-linejoin="round" stroke-linecap="round"/><circle cx="3.36" cy="-16.56" r="7.92" fill="#1d1b2c"/><circle cx="0.96" cy="-20.64" r="3.12" fill="#fff"/></g></svg>
